<?xml version="1.0" encoding="iso-8859-1"?>
<!-- Uploaded to: SVG Repo, www.svgrepo.com, Generator: SVG Repo Mixer Tools -->
<svg height="800px" width="800px" version="1.1" id="Layer_1" xmlns="http://www.w3.org/2000/svg" xmlns:xlink="http://www.w3.org/1999/xlink" 
	 viewBox="0 0 512 512" xml:space="preserve">
<polygon style="fill:#CEE8FA;" points="423.812,496.071 71.207,496.071 106.603,389.949 388.416,389.949 "/>
<path style="fill:#2D527C;" d="M427.847,128.83c-4.691-7.439-14.529-9.667-21.971-4.973c-7.441,4.694-9.666,14.532-4.971,21.971
	l11.004,17.444H234.77v-60.531V31.858h177.139l-36.092,57.208c-4.693,7.441-2.467,17.278,4.973,21.971
	c7.444,4.696,17.277,2.467,21.973-4.973l51.502-81.637c3.097-4.908,3.28-11.111,0.478-16.192C451.938,3.156,446.594,0,440.793,0
	H218.84c-8.796,0-15.929,7.131-15.929,15.929V374.02h-96.308c-6.856,0-12.942,4.385-15.11,10.889L56.097,491.031
	c-1.622,4.858-0.806,10.198,2.187,14.352c2.995,4.154,7.802,6.617,12.923,6.617h352.605c0.013,0,0.025,0,0.032,0
	c8.798,0,15.929-7.131,15.929-15.929c0-2.131-0.419-4.165-1.177-6.023l-35.07-105.139c-2.17-6.504-8.256-10.889-15.11-10.889
	H234.769V195.132h22.301v132.239c0,8.798,7.133,15.929,15.929,15.929s15.929-7.131,15.929-15.929V195.132h151.864
	c5.803,0,11.146-3.156,13.949-8.237c2.802-5.081,2.62-11.284-0.478-16.192L427.847,128.83z M376.937,405.878l24.771,74.263H93.312
	l24.77-74.263h84.829v32.354c0,8.798,7.133,15.929,15.929,15.929c8.796,0,15.929-7.132,15.929-15.929v-32.354H376.937z"/>
</svg>